<svg xmlns="http://www.w3.org/2000/svg" viewBox="0 0 64 64">
  <rect width="64" height="64" rx="11" fill="#245947"/>
  <path d="M14 17h34v28a9 9 0 0 1-9 9H23a9 9 0 0 1-9-9V17Z" fill="#fffdf8"/>
  <path d="M48 24h3a8 8 0 0 1 0 16h-3" fill="none" stroke="#fffdf8" stroke-width="5"/>
  <text x="31" y="29" text-anchor="middle" fill="#18211f" font-family="Arial, sans-serif" font-size="7" font-weight="700">WORLD'S</text>
  <text x="31" y="37" text-anchor="middle" fill="#18211f" font-family="Arial, sans-serif" font-size="8" font-weight="800">BEST</text>
  <text x="31" y="45" text-anchor="middle" fill="#18211f" font-family="Arial, sans-serif" font-size="8" font-weight="800">BOSS</text>
  <path d="M20 11c-4-5 4-6 0-10M31 11c-4-5 4-6 0-10M42 11c-4-5 4-6 0-10" fill="none" stroke="#d3a33e" stroke-width="2.5" stroke-linecap="round"/>
</svg>
