<svg xmlns="http://www.w3.org/2000/svg" width="1200" height="630" viewBox="0 0 1200 630">
  <defs>
    <clipPath id="photo"><rect x="650" width="550" height="630"/></clipPath>
    <linearGradient id="fade" x1="0" x2="1"><stop offset="0" stop-color="#245947"/><stop offset="1" stop-color="#245947" stop-opacity="0"/></linearGradient>
  </defs>
  <rect width="1200" height="630" fill="#245947"/>
  <image href="michael-scott-desk.jpg" x="650" y="-110" width="550" height="734" preserveAspectRatio="xMidYMid slice" clip-path="url(#photo)"/>
  <rect x="615" width="210" height="630" fill="url(#fade)"/>
  <g transform="translate(74 68)">
    <rect width="54" height="54" rx="8" fill="#fffdf8"/>
    <path d="M12 15h28v23a8 8 0 0 1-8 8H20a8 8 0 0 1-8-8V15Z" fill="#245947"/>
    <path d="M40 21h2a6 6 0 0 1 0 12h-2" fill="none" stroke="#245947" stroke-width="4"/>
    <text x="26" y="28" text-anchor="middle" fill="#fffdf8" font-family="Arial" font-size="6" font-weight="700">BEST</text>
    <text x="26" y="35" text-anchor="middle" fill="#fffdf8" font-family="Arial" font-size="6" font-weight="700">BOSS</text>
  </g>
  <text x="74" y="210" fill="#fffdf8" font-family="Arial, Helvetica, sans-serif" font-size="86" font-weight="800" letter-spacing="-4">THE OFFICE</text>
  <text x="78" y="268" fill="#d3a33e" font-family="Arial, Helvetica, sans-serif" font-size="26" font-weight="700" letter-spacing="8">EPISODE GUIDE</text>
  <line x1="78" y1="305" x2="565" y2="305" stroke="#89ad9f"/>
  <text x="78" y="365" fill="#fffdf8" font-family="Arial, Helvetica, sans-serif" font-size="29" font-weight="600">Every episode. Every rating.</text>
  <text x="78" y="405" fill="#d8e5df" font-family="Arial, Helvetica, sans-serif" font-size="23">Characters, running jokes, favorites</text>
  <text x="78" y="442" fill="#d8e5df" font-family="Arial, Helvetica, sans-serif" font-size="23">and all 201 episodes in one place.</text>
  <g transform="translate(78 510)">
    <rect width="190" height="54" rx="4" fill="#fffdf8"/>
    <text x="95" y="35" text-anchor="middle" fill="#245947" font-family="Arial, Helvetica, sans-serif" font-size="20" font-weight="800">START BROWSING</text>
  </g>
</svg>
